<svg width="512" height="512" viewBox="0 0 512 512" fill="none" xmlns="http://www.w3.org/2000/svg">
  <rect width="512" height="512" rx="128" fill="#FAF8F3"/>
  <rect x="68" y="68" width="376" height="376" rx="108" fill="#1A1A2E"/>
  <path d="M146 172C146 157.641 157.641 146 172 146H274C322.601 146 362 185.399 362 234C362 282.601 322.601 322 274 322H218V254H267C279.703 254 290 243.703 290 231C290 218.297 279.703 208 267 208H208V304C208 318.359 196.359 330 182 330H172C157.641 330 146 318.359 146 304V172Z" fill="#CF5B3E"/>
  <path d="M302 206H352V266C352 305.765 319.765 338 280 338H246V276H274C289.464 276 302 263.464 302 248V206Z" fill="#F0C8B7"/>
  <circle cx="348" cy="166" r="18" fill="#F0C8B7"/>
</svg>
